<svg width="24" height="25" viewBox="0 0 24 25" fill="none" xmlns="http://www.w3.org/2000/svg">
<g clip-path="url(#clip0_38_205)">
<path d="M12 24.25C18.6274 24.25 24 18.8774 24 12.25C24 5.62258 18.6274 0.25 12 0.25C5.37258 0.25 0 5.62258 0 12.25C0 18.8774 5.37258 24.25 12 24.25Z" fill="#F0F0F0"/>
<path d="M2.48081 4.94415C1.5382 6.17054 0.827434 7.58406 0.413574 9.11964H6.65629L2.48081 4.94415Z" fill="#0052B4"/>
<path d="M23.5869 9.11964C23.173 7.5841 22.4622 6.17059 21.5196 4.9442L17.3442 9.11964H23.5869Z" fill="#0052B4"/>
<path d="M0.413574 15.3805C0.82748 16.916 1.53825 18.3295 2.48081 19.5559L6.65615 15.3805H0.413574Z" fill="#0052B4"/>
<path d="M19.3058 2.73067C18.0794 1.78806 16.6659 1.0773 15.1304 0.663391V6.90606L19.3058 2.73067Z" fill="#0052B4"/>
<path d="M4.69434 21.7693C5.92073 22.7119 7.33424 23.4227 8.86977 23.8366V17.594L4.69434 21.7693Z" fill="#0052B4"/>
<path d="M8.86973 0.663391C7.33419 1.0773 5.92068 1.78806 4.69434 2.73063L8.86973 6.90602V0.663391Z" fill="#0052B4"/>
<path d="M15.1309 23.8366C16.6664 23.4227 18.0799 22.7119 19.3063 21.7694L15.1309 17.594V23.8366Z" fill="#0052B4"/>
<path d="M17.3442 15.3805L21.5196 19.5559C22.4622 18.3296 23.173 16.916 23.5869 15.3805H17.3442Z" fill="#0052B4"/>
<path d="M23.8984 10.6848H13.5653H13.5653V0.351578C13.0529 0.284875 12.5305 0.25 12 0.25C11.4694 0.25 10.9471 0.284875 10.4348 0.351578V10.6847V10.6847H0.101578C0.034875 11.1971 0 11.7195 0 12.25C0 12.7806 0.034875 13.3029 0.101578 13.8152H10.4347H10.4347V24.1484C10.9471 24.2151 11.4694 24.25 12 24.25C12.5305 24.25 13.0529 24.2152 13.5652 24.1484V13.8153V13.8153H23.8984C23.9651 13.3029 24 12.7806 24 12.25C24 11.7195 23.9651 11.1971 23.8984 10.6848Z" fill="#D80027"/>
<path d="M15.1304 15.3805L20.4852 20.7353C20.7315 20.4891 20.9664 20.2317 21.1906 19.9649L16.6061 15.3804H15.1304V15.3805Z" fill="#D80027"/>
<path d="M8.86951 15.3805H8.86941L3.51465 20.7353C3.76084 20.9815 4.01823 21.2165 4.28504 21.4406L8.86951 16.8561V15.3805Z" fill="#D80027"/>
<path d="M8.86976 9.11965V9.11955L3.51495 3.76469C3.26866 4.01088 3.03373 4.26827 2.80957 4.53508L7.39409 9.1196H8.86976V9.11965Z" fill="#D80027"/>
<path d="M15.1304 9.11964L20.4852 3.76473C20.239 3.51845 19.9817 3.28351 19.7148 3.0594L15.1304 7.64392V9.11964Z" fill="#D80027"/>
</g>
<defs>
<clipPath id="clip0_38_205">
<rect width="24" height="24" fill="white" transform="translate(0 0.25)"/>
</clipPath>
</defs>
</svg>
